<svg xmlns="http://www.w3.org/2000/svg" viewBox="0 0 400 300">
  <rect width="400" height="300" fill="#EDE9E1"/>
  <g opacity="0.15" stroke="#0E2A47" stroke-width="1">
    <line x1="0" y1="60" x2="400" y2="60"/><line x1="0" y1="120" x2="400" y2="120"/>
    <line x1="0" y1="180" x2="400" y2="180"/><line x1="0" y1="240" x2="400" y2="240"/>
    <line x1="80" y1="0" x2="80" y2="300"/><line x1="160" y1="0" x2="160" y2="300"/>
    <line x1="240" y1="0" x2="240" y2="300"/><line x1="320" y1="0" x2="320" y2="300"/>
  </g>
  <path d="M200 70L110 140v10h20v90h50v-60h40v60h50v-90h20v-10L200 70z" fill="#0E2A47"/>
  <rect x="185" y="105" width="30" height="30" fill="#D8A53A"/>
  <line x1="200" y1="105" x2="200" y2="135" stroke="#0E2A47" stroke-width="3"/>
  <line x1="185" y1="120" x2="215" y2="120" stroke="#0E2A47" stroke-width="3"/>
  <text x="200" y="270" font-family="Arial" font-size="14" fill="#0E2A47" text-anchor="middle" opacity="0.5">Imagen editable — reemplaza este archivo</text>
</svg>
